<svg xmlns="http://www.w3.org/2000/svg" xmlns:xlink="http://www.w3.org/1999/xlink" width="1080" zoomAndPan="magnify" viewBox="0 0 810 809.999993" height="1080" preserveAspectRatio="xMidYMid meet" version="1.0"><path fill="#f59b90" d="M 177.164062 215.011719 C 179.015625 210.378906 183.648438 204.816406 187.542969 202.777344 C 193.289062 199.8125 202 199.441406 209.230469 201.851562 C 216.644531 204.445312 229.246094 212.601562 235.921875 219.644531 C 239.628906 223.351562 249.449219 235.769531 253.527344 241.703125 C 260.757812 252.082031 268.726562 268.207031 272.0625 278.957031 C 274.472656 286.371094 276.328125 303.796875 277.253906 328.632812 C 277.996094 345.6875 278.738281 352.542969 280.21875 359.03125 C 281.515625 364.964844 283.925781 372.5625 285.78125 376.457031 C 287.261719 379.421875 290.230469 382.757812 291.710938 382.757812 C 293.195312 382.757812 295.046875 379.421875 296.902344 373.117188 C 300.421875 360.699219 306.355469 345.128906 313.214844 329.5625 C 319.699219 315.101562 329.339844 299.347656 354.734375 262.089844 C 359.367188 255.046875 366.222656 244.855469 369.5625 239.292969 C 373.082031 233.917969 378.457031 225.390625 381.421875 220.570312 C 384.574219 215.753906 387.910156 210.191406 388.835938 208.339844 C 389.765625 206.484375 393.84375 196.476562 397.550781 186.097656 C 408.855469 155.882812 414.417969 143.648438 429.988281 116.03125 C 435.363281 106.765625 437.402344 102.316406 442.035156 90.082031 C 452.414062 63.390625 454.269531 59.128906 458.347656 50.046875 C 463.90625 37.441406 468.726562 29.472656 475.769531 21.6875 C 483.925781 12.234375 492.082031 6.117188 499.863281 3.335938 C 505.242188 1.296875 515.804688 0 519.511719 0.742188 C 525.257812 2.222656 530.449219 7.230469 531.929688 12.976562 C 533.230469 17.792969 532.671875 21.871094 529.523438 31.695312 C 528.039062 36.886719 524.886719 46.710938 522.847656 53.382812 C 520.808594 60.425781 516.917969 71.917969 514.695312 78.960938 C 512.285156 86.191406 508.949219 96.382812 507.28125 101.757812 C 505.796875 107.136719 503.015625 116.03125 501.164062 121.40625 C 495.972656 136.976562 494.488281 141.796875 490.042969 158.476562 C 484.109375 181.089844 481.328125 188.136719 472.0625 205.742188 C 466.5 215.753906 463.535156 222.425781 457.234375 237.4375 C 454.636719 243.925781 450.191406 253.9375 447.410156 259.867188 C 441.476562 272.65625 437.402344 282.296875 438.699219 280.441406 C 444.257812 271.542969 452.785156 260.609375 462.792969 248.375 C 470.207031 239.847656 479.476562 227.429688 484.667969 219.644531 C 488.929688 213.15625 490.78125 208.339844 497.269531 187.394531 C 501.71875 173.492188 504.683594 164.59375 509.503906 153.289062 C 512.839844 144.949219 516.363281 135.863281 517.289062 133.269531 C 518.03125 130.488281 519.882812 122.148438 521.179688 114.550781 C 526.183594 86.191406 530.820312 70.433594 539.160156 52.640625 C 547.128906 35.957031 553.617188 27.804688 562.699219 22.984375 C 574.007812 16.683594 583.832031 17.609375 589.207031 25.394531 C 593.285156 31.140625 593.46875 39.296875 590.132812 63.019531 C 589.761719 66.171875 589.390625 68.765625 589.390625 68.765625 C 589.390625 68.953125 590.316406 69.136719 591.429688 69.324219 C 594.394531 69.878906 596.0625 70.992188 598.289062 73.957031 C 601.625 78.21875 602.367188 81.371094 602.367188 96.382812 C 602.367188 103.429688 602.179688 114.550781 601.625 121.222656 C 601.441406 127.894531 600.882812 139.386719 600.511719 147.171875 C 599.402344 179.792969 598.472656 187.394531 591.246094 224.464844 C 588.28125 240.035156 582.535156 275.621094 583.089844 276.179688 C 583.273438 276.363281 583.460938 274.882812 583.832031 273.027344 C 584.941406 268.023438 593.097656 239.109375 595.136719 233.363281 C 596.25 230.582031 598.472656 225.578125 599.957031 222.054688 C 602.367188 216.863281 603.664062 215.011719 607 211.304688 C 609.78125 208.339844 612.375 206.113281 614.414062 205.003906 C 617.378906 203.519531 618.121094 203.335938 622.382812 203.519531 C 628.871094 203.519531 632.023438 205.1875 635.542969 210.007812 C 640.363281 217.050781 640.550781 223.167969 636.65625 242.074219 C 635.175781 248.929688 633.320312 261.90625 632.023438 273.582031 C 629.796875 292.304688 627.390625 301.941406 621.085938 316.214844 C 616.453125 326.964844 616.453125 327.335938 610.707031 344.945312 C 608.113281 352.730469 604.960938 361.628906 603.664062 364.40625 C 599.03125 374.417969 593.097656 381.644531 574.007812 400.179688 C 560.105469 413.710938 548.984375 425.574219 543.050781 432.988281 C 537.675781 439.660156 536.9375 440.773438 534.15625 447.445312 C 528.78125 460.605469 525.074219 471.171875 516.546875 498.417969 C 504.683594 536.046875 501.71875 546.054688 494.488281 575.898438 C 490.226562 593.136719 488.929688 600.917969 487.261719 612.96875 C 486.148438 621.863281 486.148438 622.234375 487.074219 629.277344 C 487.632812 633.171875 488.375 638.175781 488.742188 640.402344 C 490.410156 649.484375 495.230469 665.421875 501.164062 681.734375 C 504.683594 691.558594 509.316406 704.53125 511.542969 710.835938 C 513.953125 717.136719 516.730469 724.921875 518.03125 728.257812 C 519.328125 731.59375 522.109375 738.824219 524.148438 744.199219 C 526.183594 749.757812 528.78125 756.617188 530.078125 759.582031 C 533.042969 766.625 533.414062 769.964844 531.5625 772.742188 C 530.078125 774.96875 527.667969 776.449219 517.472656 781.269531 C 503.941406 787.757812 496.898438 789.980469 471.691406 795.726562 C 435.730469 804.070312 406.632812 808.515625 383.089844 809.445312 C 366.039062 810 358.996094 809.628906 343.242188 807.21875 C 329.710938 804.996094 326.003906 803.882812 323.964844 801.472656 C 322.851562 800.175781 320.628906 791.648438 319.886719 785.902344 C 319.699219 783.863281 318.773438 777.007812 318.402344 770.890625 C 316.179688 747.90625 308.765625 700.457031 304.316406 681.550781 C 298.941406 658.195312 291.898438 638.917969 284.855469 628.539062 C 278.550781 619.457031 275.03125 615.378906 270.953125 613.339844 C 264.648438 610.003906 259.089844 605.738281 252.417969 599.066406 C 239.8125 586.277344 233.511719 578.121094 229.246094 568.113281 C 225.539062 559.398438 221.089844 544.015625 217.570312 527.148438 C 216.457031 521.402344 214.417969 512.136719 213.308594 506.574219 C 212.007812 501.199219 210.339844 493.414062 209.601562 489.523438 C 207.746094 480.070312 201.445312 443.367188 200.515625 437.25 C 199.21875 428.167969 197.738281 402.777344 197.550781 388.875 C 197.550781 384.796875 197.367188 378.863281 197.179688 376.085938 C 196.808594 373.304688 196.253906 365.332031 195.882812 358.476562 C 194.769531 341.792969 194.402344 338.828125 191.0625 317.140625 C 186.984375 289.894531 184.578125 278.03125 179.386719 258.011719 C 176.234375 246.152344 175.679688 242.628906 175.308594 234.472656 C 174.566406 225.578125 175.125 220.757812 177.164062 215.011719 Z M 177.164062 215.011719 " fill-opacity="1" fill-rule="nonzero"/></svg>