<svg xmlns="http://www.w3.org/2000/svg" xmlns:xlink="http://www.w3.org/1999/xlink" width="1080" zoomAndPan="magnify" viewBox="0 0 810 809.999993" height="1080" preserveAspectRatio="xMidYMid meet" version="1.0"><path fill="#f59b90" d="M 632.835938 215.011719 C 630.984375 210.378906 626.347656 204.816406 622.457031 202.777344 C 616.710938 199.8125 608 199.441406 600.769531 201.851562 C 593.355469 204.445312 580.75 212.601562 574.078125 219.644531 C 570.371094 223.351562 560.546875 235.769531 556.46875 241.703125 C 549.242188 252.082031 541.269531 268.207031 537.933594 278.957031 C 535.523438 286.371094 533.671875 303.796875 532.746094 328.632812 C 532.003906 345.6875 531.261719 352.542969 529.777344 359.03125 C 528.480469 364.964844 526.070312 372.5625 524.21875 376.457031 C 522.734375 379.421875 519.769531 382.757812 518.289062 382.757812 C 516.804688 382.757812 514.949219 379.421875 513.097656 373.117188 C 509.574219 360.699219 503.644531 345.128906 496.785156 329.5625 C 490.296875 315.101562 480.660156 299.347656 455.265625 262.089844 C 450.632812 255.046875 443.773438 244.855469 440.4375 239.292969 C 436.917969 233.917969 431.542969 225.390625 428.574219 220.570312 C 425.425781 215.753906 422.089844 210.191406 421.160156 208.339844 C 420.234375 206.484375 416.15625 196.476562 412.449219 186.097656 C 401.144531 155.882812 395.582031 143.648438 380.011719 116.03125 C 374.636719 106.765625 372.597656 102.316406 367.964844 90.082031 C 357.585938 63.390625 355.730469 59.128906 351.652344 50.046875 C 346.09375 37.441406 341.273438 29.472656 334.230469 21.6875 C 326.074219 12.234375 317.917969 6.117188 310.132812 3.335938 C 304.757812 1.296875 294.195312 0 290.488281 0.742188 C 284.742188 2.222656 279.550781 7.230469 278.066406 12.976562 C 276.769531 17.792969 277.328125 21.871094 280.476562 31.695312 C 281.960938 36.886719 285.109375 46.710938 287.148438 53.382812 C 289.1875 60.425781 293.082031 71.917969 295.304688 78.960938 C 297.714844 86.191406 301.050781 96.382812 302.71875 101.757812 C 304.203125 107.136719 306.984375 116.03125 308.835938 121.40625 C 314.027344 136.976562 315.507812 141.796875 319.957031 158.476562 C 325.890625 181.089844 328.667969 188.136719 337.9375 205.742188 C 343.496094 215.753906 346.464844 222.425781 352.765625 237.4375 C 355.359375 243.925781 359.808594 253.9375 362.589844 259.867188 C 368.519531 272.65625 372.597656 282.296875 371.300781 280.441406 C 365.742188 271.542969 357.214844 260.609375 347.203125 248.375 C 339.789062 239.847656 330.523438 227.429688 325.332031 219.644531 C 321.070312 213.15625 319.214844 208.339844 312.730469 187.394531 C 308.28125 173.492188 305.316406 164.59375 300.496094 153.289062 C 297.160156 144.949219 293.636719 135.863281 292.710938 133.269531 C 291.96875 130.488281 290.117188 122.148438 288.816406 114.550781 C 283.8125 86.191406 279.179688 70.433594 270.839844 52.640625 C 262.867188 35.957031 256.382812 27.804688 247.296875 22.984375 C 235.992188 16.683594 226.167969 17.609375 220.792969 25.394531 C 216.714844 31.140625 216.53125 39.296875 219.867188 63.019531 C 220.238281 66.171875 220.609375 68.765625 220.609375 68.765625 C 220.609375 68.953125 219.679688 69.136719 218.570312 69.324219 C 215.601562 69.878906 213.933594 70.992188 211.710938 73.957031 C 208.375 78.21875 207.632812 81.371094 207.632812 96.382812 C 207.632812 103.429688 207.816406 114.550781 208.375 121.222656 C 208.558594 127.894531 209.117188 139.386719 209.488281 147.171875 C 210.597656 179.792969 211.523438 187.394531 218.753906 224.464844 C 221.71875 240.035156 227.464844 275.621094 226.910156 276.179688 C 226.722656 276.363281 226.539062 274.882812 226.167969 273.027344 C 225.054688 268.023438 216.902344 239.109375 214.863281 233.363281 C 213.75 230.582031 211.523438 225.578125 210.042969 222.054688 C 207.632812 216.863281 206.335938 215.011719 203 211.304688 C 200.21875 208.339844 197.625 206.113281 195.585938 205.003906 C 192.621094 203.519531 191.878906 203.335938 187.613281 203.519531 C 181.128906 203.519531 177.976562 205.1875 174.453125 210.007812 C 169.636719 217.050781 169.449219 223.167969 173.34375 242.074219 C 174.824219 248.929688 176.679688 261.90625 177.976562 273.582031 C 180.199219 292.304688 182.609375 301.941406 188.910156 316.214844 C 193.546875 326.964844 193.546875 327.335938 199.292969 344.945312 C 201.886719 352.730469 205.039062 361.628906 206.335938 364.40625 C 210.96875 374.417969 216.902344 381.644531 235.992188 400.179688 C 249.894531 413.710938 261.015625 425.574219 266.945312 432.988281 C 272.320312 439.660156 273.0625 440.773438 275.84375 447.445312 C 281.21875 460.605469 284.925781 471.171875 293.453125 498.417969 C 305.316406 536.046875 308.28125 546.054688 315.507812 575.898438 C 319.773438 593.136719 321.070312 600.917969 322.738281 612.96875 C 323.851562 621.863281 323.851562 622.234375 322.921875 629.277344 C 322.367188 633.171875 321.625 638.175781 321.253906 640.402344 C 319.585938 649.484375 314.769531 665.421875 308.835938 681.734375 C 305.316406 691.558594 300.679688 704.53125 298.457031 710.835938 C 296.046875 717.136719 293.265625 724.921875 291.96875 728.257812 C 290.671875 731.59375 287.890625 738.824219 285.851562 744.199219 C 283.8125 749.757812 281.21875 756.617188 279.921875 759.582031 C 276.957031 766.625 276.585938 769.964844 278.4375 772.742188 C 279.921875 774.96875 282.332031 776.449219 292.523438 781.269531 C 306.054688 787.757812 313.101562 789.980469 338.308594 795.726562 C 374.265625 804.070312 403.367188 808.515625 426.90625 809.445312 C 443.960938 810 451.003906 809.628906 466.757812 807.21875 C 480.289062 804.996094 483.996094 803.882812 486.035156 801.472656 C 487.148438 800.175781 489.371094 791.648438 490.113281 785.902344 C 490.296875 783.863281 491.226562 777.007812 491.597656 770.890625 C 493.820312 747.90625 501.234375 700.457031 505.683594 681.550781 C 511.058594 658.195312 518.101562 638.917969 525.144531 628.539062 C 531.449219 619.457031 534.96875 615.378906 539.046875 613.339844 C 545.347656 610.003906 550.910156 605.738281 557.582031 599.066406 C 570.1875 586.277344 576.488281 578.121094 580.75 568.113281 C 584.460938 559.398438 588.90625 544.015625 592.429688 527.148438 C 593.542969 521.402344 595.582031 512.136719 596.691406 506.574219 C 597.988281 501.199219 599.65625 493.414062 600.398438 489.523438 C 602.253906 480.070312 608.554688 443.367188 609.480469 437.25 C 610.78125 428.167969 612.261719 402.777344 612.449219 388.875 C 612.449219 384.796875 612.632812 378.863281 612.816406 376.085938 C 613.1875 373.304688 613.746094 365.332031 614.117188 358.476562 C 615.226562 341.792969 615.597656 338.828125 618.933594 317.140625 C 623.011719 289.894531 625.421875 278.03125 630.613281 258.011719 C 633.761719 246.152344 634.320312 242.628906 634.691406 234.472656 C 635.429688 225.578125 634.875 220.757812 632.835938 215.011719 Z M 632.835938 215.011719 " fill-opacity="1" fill-rule="nonzero"/></svg>